<svg width="192" height="181" viewBox="0 0 192 181" fill="none" xmlns="http://www.w3.org/2000/svg">
  <ellipse cx="95.5217" cy="90.1333" rx="95.5217" ry="90.1333" fill="#DDFFE8" />
  <path d="M100.747 147.507V131.832C100.747 128.947 98.4111 126.604 95.519 126.604C92.6347 126.604 90.2912 128.94 90.2912 131.832V147.507C90.2912 150.391 92.6269 152.735 95.519 152.735C98.4032 152.735 100.747 150.399 100.747 147.507Z" fill="#7CE495" />
  <path d="M141.777 130.586L119.306 100.152C118.021 98.4119 115.56 98.0435 113.828 99.3289C112.785 100.097 112.307 101.28 112.307 102.48H78.7307C78.7307 101.28 78.2447 100.097 77.2102 99.3289C75.4702 98.0435 73.017 98.4119 71.7316 100.152L49.261 130.586C48.3832 131.777 48.2499 133.36 48.9161 134.677C49.5823 136.001 50.9304 136.832 52.4117 136.832H138.626C140.108 136.832 141.456 136.001 142.122 134.677C142.788 133.36 142.655 131.777 141.777 130.586Z" fill="url(#paint0_linear)" />
  <path d="M136.518 99.4151L113.851 69.679C112.535 67.9547 110.081 67.6255 108.357 68.9344C107.346 69.7025 106.884 70.8703 106.876 72.0538H84.1543C84.1543 70.8703 83.684 69.7103 82.673 68.9344C80.9565 67.6255 78.4955 67.9547 77.1788 69.679L54.5122 99.4151C53.6109 100.599 53.4541 102.19 54.1203 103.53C54.7865 104.862 56.1424 105.709 57.6316 105.709H133.398C134.888 105.709 136.251 104.862 136.91 103.53C137.576 102.19 137.419 100.599 136.518 99.4151Z" fill="url(#paint1_linear)" />
  <path d="M126.164 68.1898L98.7324 29.0014C97.2667 26.9087 93.779 26.9087 92.3133 29.0014L64.8814 68.1898C64.0428 69.389 63.9409 70.9487 64.615 72.2497C65.289 73.5429 66.6292 74.3581 68.0871 74.3581H122.951C124.416 74.3581 125.749 73.5429 126.423 72.2497C127.105 70.9487 127.003 69.389 126.164 68.1898Z" fill="url(#paint2_linear)" />
  <defs>
    <linearGradient id="paint0_linear" x1="95.519" y1="98.5622" x2="95.519" y2="136.832" gradientUnits="userSpaceOnUse">
      <stop stop-color="#54C695" />
      <stop offset="1" stop-color="#7CE495" />
    </linearGradient>
    <linearGradient id="paint1_linear" x1="95.515" y1="68.1337" x2="95.515" y2="105.709" gradientUnits="userSpaceOnUse">
      <stop stop-color="#359D9E" />
      <stop offset="1" stop-color="#55C595" />
    </linearGradient>
    <linearGradient id="paint2_linear" x1="95.5222" y1="27.4319" x2="95.5222" y2="74.3581" gradientUnits="userSpaceOnUse">
      <stop stop-color="#359D9E" />
      <stop offset="1" stop-color="#55C595" />
    </linearGradient>
  </defs>
</svg>
